<svg xmlns="http://www.w3.org/2000/svg" width="720" height="560" viewBox="0 0 720 560">
<rect width="100%" height="100%" fill="white"/>
<text x="360.0" y="24" text-anchor="middle" font-size="20" font-family="Arial">ROC Curve</text>
<line x1="80.00" y1="490.00" x2="80.00" y2="496.00" stroke="#333"/><text x="80.00" y="514.00" text-anchor="middle" font-size="13">0.0</text><line x1="74.00" y1="490.00" x2="80.00" y2="490.00" stroke="#333"/><text x="68.00" y="495.00" text-anchor="end" font-size="13">0.0</text><line x1="202.00" y1="490.00" x2="202.00" y2="496.00" stroke="#333"/><text x="202.00" y="514.00" text-anchor="middle" font-size="13">0.2</text><line x1="74.00" y1="400.00" x2="80.00" y2="400.00" stroke="#333"/><text x="68.00" y="405.00" text-anchor="end" font-size="13">0.2</text><line x1="202.00" y1="490.00" x2="202.00" y2="40.00" stroke="#e6e6e6"/><line x1="80.00" y1="400.00" x2="690.00" y2="400.00" stroke="#e6e6e6"/><line x1="324.00" y1="490.00" x2="324.00" y2="496.00" stroke="#333"/><text x="324.00" y="514.00" text-anchor="middle" font-size="13">0.4</text><line x1="74.00" y1="310.00" x2="80.00" y2="310.00" stroke="#333"/><text x="68.00" y="315.00" text-anchor="end" font-size="13">0.4</text><line x1="324.00" y1="490.00" x2="324.00" y2="40.00" stroke="#e6e6e6"/><line x1="80.00" y1="310.00" x2="690.00" y2="310.00" stroke="#e6e6e6"/><line x1="446.00" y1="490.00" x2="446.00" y2="496.00" stroke="#333"/><text x="446.00" y="514.00" text-anchor="middle" font-size="13">0.6</text><line x1="74.00" y1="220.00" x2="80.00" y2="220.00" stroke="#333"/><text x="68.00" y="225.00" text-anchor="end" font-size="13">0.6</text><line x1="446.00" y1="490.00" x2="446.00" y2="40.00" stroke="#e6e6e6"/><line x1="80.00" y1="220.00" x2="690.00" y2="220.00" stroke="#e6e6e6"/><line x1="568.00" y1="490.00" x2="568.00" y2="496.00" stroke="#333"/><text x="568.00" y="514.00" text-anchor="middle" font-size="13">0.8</text><line x1="74.00" y1="130.00" x2="80.00" y2="130.00" stroke="#333"/><text x="68.00" y="135.00" text-anchor="end" font-size="13">0.8</text><line x1="568.00" y1="490.00" x2="568.00" y2="40.00" stroke="#e6e6e6"/><line x1="80.00" y1="130.00" x2="690.00" y2="130.00" stroke="#e6e6e6"/><line x1="690.00" y1="490.00" x2="690.00" y2="496.00" stroke="#333"/><text x="690.00" y="514.00" text-anchor="middle" font-size="13">1.0</text><line x1="74.00" y1="40.00" x2="80.00" y2="40.00" stroke="#333"/><text x="68.00" y="45.00" text-anchor="end" font-size="13">1.0</text>
<line x1="80" y1="490" x2="690" y2="490" stroke="#333" stroke-width="1.5"/>
<line x1="80" y1="40" x2="80" y2="490" stroke="#333" stroke-width="1.5"/>
<line x1="80.00" y1="490.00" x2="690.00" y2="40.00" stroke="#999" stroke-dasharray="6 6"/>
<polyline points="80.00,490.00 80.00,486.15 80.00,459.23 80.00,451.54 80.00,409.23 80.00,401.54 80.00,397.69 80.71,393.85 80.71,390.00 81.42,386.15 82.13,386.15 82.13,378.46 82.83,378.46 82.83,363.08 84.25,359.23 84.96,359.23 84.96,336.15 85.67,336.15 85.67,332.31 87.08,332.31 87.08,309.23 88.50,305.38 88.50,297.69 90.63,297.69 90.63,290.00 91.34,290.00 91.34,282.31 91.34,278.46 92.04,278.46 92.04,266.92 93.46,266.92 93.46,263.08 94.17,263.08 97.71,228.46 98.42,228.46 99.84,224.62 99.84,220.77 100.55,216.92 100.55,209.23 101.25,209.23 101.25,201.54 102.67,201.54 102.67,190.00 106.21,190.00 106.21,182.31 108.34,182.31 108.34,170.77 109.05,170.77 109.05,166.92 109.76,166.92 109.76,163.08 110.46,163.08 110.46,151.54 111.17,151.54 111.17,147.69 114.72,147.69 114.72,132.31 116.13,132.31 116.13,128.46 116.84,128.46 116.84,120.77 118.97,120.77 118.97,116.92 120.38,116.92 121.80,116.92 121.80,113.08 125.34,113.08 125.34,109.23 127.47,109.23 128.89,109.23 130.30,109.23 130.30,101.54 131.72,101.54 131.72,97.69 135.26,97.69 135.26,93.85 137.39,93.85 138.10,93.85 138.10,90.00 145.18,90.00 145.89,86.15 148.72,86.15 151.56,86.15 152.26,86.15 152.26,82.31 156.52,82.31 157.22,78.46 157.93,78.46 160.77,74.62 160.77,70.77 163.60,70.77 163.60,66.92 165.02,66.92 176.35,59.23 177.77,59.23 181.31,55.38 183.44,55.38 185.56,55.38 186.27,55.38 191.23,55.38 191.94,55.38 191.94,51.54 192.65,51.54 192.65,47.69 194.77,43.85 196.90,43.85 198.32,43.85 204.69,43.85 207.53,43.85 207.53,40.00 218.86,40.00 220.28,40.00 225.24,40.00 229.49,40.00 245.08,40.00 266.33,40.00 267.04,40.00 690.00,40.00" fill="none" stroke="#1f77b4" stroke-width="3"/>
<text x="680" y="470" text-anchor="end" font-size="15" font-family="Arial">XGBoost AUC=0.9615</text>
<text x="385.0" y="538" text-anchor="middle" font-size="15" font-family="Arial">False Positive Rate</text>
<text x="22" y="265.0" text-anchor="middle" font-size="15" font-family="Arial" transform="rotate(-90 22 265.0)">True Positive Rate</text>
</svg>
